<?xml version="1.0" encoding="utf-8"?>
<!-- Generator: Adobe Illustrator 27.2.0, SVG Export Plug-In . SVG Version: 6.00 Build 0)  -->
<svg version="1.1" id="Calque_1" xmlns="http://www.w3.org/2000/svg" xmlns:xlink="http://www.w3.org/1999/xlink" x="0px" y="0px"
	 viewBox="0 0 512 512" style="enable-background:new 0 0 512 512;" xml:space="preserve">
<style type="text/css">
	.st0{fill:url(#SVGID_1_);}
	.st1{fill:#FFFFFF;}
</style>
<linearGradient id="SVGID_1_" gradientUnits="userSpaceOnUse" x1="81.1488" y1="558.8513" x2="430.8513" y2="-46.8513">
	<stop  offset="0" style="stop-color:#6E4EE5"/>
	<stop  offset="0.9994" style="stop-color:#4F14EE"/>
</linearGradient>
<rect y="0" class="st0" width="512" height="512"/>
<path class="st1" d="M317.9,185.4c0,4.9-0.9,9.9-3,15.2c-2.5,9-7.6,20.1-13.7,30.5l-0.1-0.4c-1.6,3.2-3.2,6-4.9,8.7
	c-2.3,3.6-4.6,6.8-7,10.7l-0.2,0.3c-9.3,13.9-18.9,26.3-25.4,33.9c-4,5.4-11.3,5.4-15.3,0c-6.4-7.6-16-20-25.4-33.9
	c-9.5-14.1-18.7-29.6-24.1-43.6c-0.4-1.1-0.8-2.2-1.6-3.2c-1.8-6.5-3.1-12.5-3.1-17.8c0-2.4,0.2-4.8,0.4-7.1
	C198,147.9,224.2,124,256,124c34.2,0,61.9,27.7,61.9,61.9V185.4z M256,201.9c11.4,0,20.6-8.8,20.6-20.6c0-10.9-9.2-20.6-20.6-20.6
	c-11.4,0-20.6,9.7-20.6,20.6C235.4,193.1,244.6,201.9,256,201.9z M289,279c7-9.4,14.8-20.6,22-32.2c0.9-1.5,1.8-3,2.7-4.5v115.6
	l66-24V203.6l-56,20.4c1.1-2.4,2.2-4.8,3.2-7.2c3-7.2,5.7-15,6.8-22.8l54.1-19.7c3.8-1.4,8-0.8,11.3,1.5c3.3,2.3,5.3,6.1,5.3,9.7
	v157.2c0,5.2-3.2,9.8-8.1,11.7l-90.7,33c-2.7,1-5.7,1-8.5,0l-86.5-31.5l-86.5,31.5c-3.8,1.3-8,0.8-11.3-1.5
	c-3.3-2.3-5.3-6.1-5.3-10.2V218.4c0-4.7,3.3-9.4,8.1-11.2l62-22.5c0,0.4,0,0.8,0,0.7c0,8.2,1.9,16.3,4.6,24l-50,18.1v130.4l66-24
	v-91.6c0.9,1.5,1.8,3,2.7,4.5c7.2,11.6,15.1,22.8,22,32.2v55l66,24V279z"/>
</svg>
